<svg xmlns="http://www.w3.org/2000/svg" width="40" height="40" viewBox="0 0 40 40">
  <g id="그룹_54" data-name="그룹 54" transform="translate(6741 8800)">
    <rect id="사각형_192" data-name="사각형 192" width="40" height="40" transform="translate(-6741 -8800)" fill="none"/>
    <path id="arrow_forward_ios_FILL0_wght600_GRAD0_opsz48" d="M13.26,32.691a1.906,1.906,0,0,1-.535-1.291,1.705,1.705,0,0,1,.535-1.291L24.63,18.744,13.26,7.379a1.8,1.8,0,0,1-.535-1.273A1.726,1.726,0,0,1,13.26,4.8a1.742,1.742,0,0,1,2.547-.037L28.8,17.711a1.532,1.532,0,0,1,.332.48,1.438,1.438,0,0,1,0,1.107,1.532,1.532,0,0,1-.332.48L15.844,32.728a1.731,1.731,0,0,1-1.274.517,1.792,1.792,0,0,1-1.31-.553Z" transform="translate(-6741.984 -8798.734)" fill="#d9d9d9"/>
  </g>
</svg>
