<svg xmlns="http://www.w3.org/2000/svg" width="40" height="40" viewBox="0 0 40 40">
  <g id="그룹_55" data-name="그룹 55" transform="translate(6789 8800)">
    <rect id="사각형_191" data-name="사각형 191" width="40" height="40" transform="translate(-6789 -8800)" fill="none"/>
    <path id="arrow_back_ios_new_FILL0_wght600_GRAD0_opsz48" d="M26.3,32.852,13.343,19.893a1.533,1.533,0,0,1-.332-.48,1.44,1.44,0,0,1,0-1.108,1.533,1.533,0,0,1,.332-.48L26.3,4.867a1.809,1.809,0,0,1,3.1,1.292,1.879,1.879,0,0,1-.517,1.329L17.515,18.859,28.886,30.23a1.824,1.824,0,0,1,.535,1.329,1.86,1.86,0,0,1-1.846,1.809,1.731,1.731,0,0,1-1.274-.517Z" transform="translate(-6790.161 -8798.859)" fill="#d9d9d9"/>
  </g>
</svg>
