<svg xmlns="http://www.w3.org/2000/svg" width="40" height="40" viewBox="0 0 40 40">
  <g id="그룹_51" data-name="그룹 51" transform="translate(6770 8880)">
    <rect id="사각형_190" data-name="사각형 190" width="40" height="40" transform="translate(-6770 -8880)" fill="none"/>
    <path id="empty-heart" d="M17.784,31.208,16.2,29.667a98.35,98.35,0,0,1-7.778-8.188,12.458,12.458,0,0,1-3.293-8.021,7.234,7.234,0,0,1,2-5.187,6.553,6.553,0,0,1,4.941-2.1,8.113,8.113,0,0,1,3.591.958,9.624,9.624,0,0,1,3.63,3.708,10.333,10.333,0,0,1,3.65-3.708,7.823,7.823,0,0,1,3.571-.958,6.553,6.553,0,0,1,4.941,2.1,7.234,7.234,0,0,1,2,5.187,12.473,12.473,0,0,1-3.432,8.188q-3.432,3.979-7.639,7.979l-1.548,1.542a2.5,2.5,0,0,1-1.548.6A2.157,2.157,0,0,1,17.784,31.208ZM18.7,12.375a10.313,10.313,0,0,0-3.075-3.687A6.219,6.219,0,0,0,12.07,7.542,5.41,5.41,0,0,0,8,9.208a5.872,5.872,0,0,0-1.608,4.25,8.636,8.636,0,0,0,1.012,3.917,22.6,22.6,0,0,0,2.718,4.083,56.621,56.621,0,0,0,3.908,4.271q2.2,2.188,4.623,4.479a.932.932,0,0,0,1.27,0q2.42-2.291,4.623-4.479a56.621,56.621,0,0,0,3.908-4.271,22.6,22.6,0,0,0,2.718-4.083,8.636,8.636,0,0,0,1.012-3.917,5.872,5.872,0,0,0-1.608-4.25,5.41,5.41,0,0,0-4.068-1.666,6.219,6.219,0,0,0-3.551,1.146,10.313,10.313,0,0,0-3.075,3.687.944.944,0,0,1-.3.271.627.627,0,0,1-.3.1.672.672,0,0,1-.337-.1.618.618,0,0,1-.258-.271ZM19.291,19.042Z" transform="translate(-6769.291 -8878.969)" fill="#d9d9d9" stroke="#d9d9d9" stroke-width="1"/>
  </g>
</svg>
