<svg xmlns="http://www.w3.org/2000/svg" width="40" height="40" viewBox="0 0 40 40">
  <g id="그룹_53" data-name="그룹 53" transform="translate(6672 8880)">
    <rect id="사각형_190" data-name="사각형 190" width="40" height="40" transform="translate(-6672 -8880)" fill="none"/>
    <path id="favorite_FILL1_wght200_GRAD-25_opsz40" d="M17.783,31.184,16.2,29.644a98.29,98.29,0,0,1-7.777-8.18,12.44,12.44,0,0,1-3.293-8.013,7.223,7.223,0,0,1,2-5.182,6.555,6.555,0,0,1,4.94-2.1,8.118,8.118,0,0,1,3.591.957,9.619,9.619,0,0,1,3.63,3.7,10.327,10.327,0,0,1,3.65-3.7,7.827,7.827,0,0,1,3.571-.957,6.555,6.555,0,0,1,4.94,2.1,7.223,7.223,0,0,1,2,5.182,12.455,12.455,0,0,1-3.432,8.18q-3.432,3.975-7.638,7.971L20.8,31.143a2.165,2.165,0,0,1-1.507.624A2.246,2.246,0,0,1,17.783,31.184Z" transform="translate(-6671.29 -8878.967)" fill="#0ea100"/>
  </g>
</svg>
